<mxfile host="app.diagrams.net" agent="Mozilla/5.0 (Macintosh; Intel Mac OS X 10_15_7) AppleWebKit/605.1.15 (KHTML, like Gecko) Version/18.5 Safari/605.1.15" version="27.2.0">
  <diagram name="Page-1" id="MUpO-80bZ4cRYe_vbzj_">
    <mxGraphModel dx="2066" dy="1220" grid="1" gridSize="10" guides="1" tooltips="1" connect="1" arrows="1" fold="1" page="1" pageScale="1" pageWidth="850" pageHeight="1100" math="0" shadow="0">
      <root>
        <mxCell id="0" />
        <mxCell id="1" parent="0" />
        <mxCell id="PMgbwwrYKCj1JpObVLI5-1" value="&lt;p style=&quot;margin:0px;margin-top:4px;text-align:center;&quot;&gt;&lt;i&gt;&amp;lt;&amp;lt;Interface&amp;gt;&amp;gt;&lt;/i&gt;&lt;br&gt;&lt;b&gt;State&amp;lt;T&amp;gt;&lt;/b&gt;&lt;/p&gt;&lt;hr size=&quot;1&quot; style=&quot;border-style:solid;&quot;&gt;&lt;p style=&quot;margin:0px;margin-left:4px;&quot;&gt;+ onEnter(state: T) : void&lt;/p&gt;&lt;p style=&quot;margin:0px;margin-left:4px;&quot;&gt;+ onExit(state: T) : void&lt;/p&gt;&lt;p style=&quot;margin:0px;margin-left:4px;&quot;&gt;+ update(state: T, deltaTime: float) : void&lt;/p&gt;" style="verticalAlign=top;align=left;overflow=fill;html=1;whiteSpace=wrap;rounded=1;arcSize=7;" parent="1" vertex="1">
          <mxGeometry x="493" y="350" width="240" height="90" as="geometry" />
        </mxCell>
        <mxCell id="PMgbwwrYKCj1JpObVLI5-3" style="edgeStyle=orthogonalEdgeStyle;rounded=0;orthogonalLoop=1;jettySize=auto;html=1;exitX=0.5;exitY=0;exitDx=0;exitDy=0;entryX=0.5;entryY=1;entryDx=0;entryDy=0;endArrow=block;endFill=0;endSize=10;" parent="1" source="PMgbwwrYKCj1JpObVLI5-2" target="PMgbwwrYKCj1JpObVLI5-1" edge="1">
          <mxGeometry relative="1" as="geometry" />
        </mxCell>
        <mxCell id="PMgbwwrYKCj1JpObVLI5-6" style="edgeStyle=orthogonalEdgeStyle;rounded=0;orthogonalLoop=1;jettySize=auto;html=1;exitX=0.5;exitY=1;exitDx=0;exitDy=0;endSize=10;endArrow=open;endFill=0;dashed=1;" parent="1" source="PMgbwwrYKCj1JpObVLI5-2" edge="1">
          <mxGeometry relative="1" as="geometry">
            <mxPoint x="613" y="590" as="targetPoint" />
          </mxGeometry>
        </mxCell>
        <mxCell id="PMgbwwrYKCj1JpObVLI5-28" style="edgeStyle=orthogonalEdgeStyle;rounded=0;orthogonalLoop=1;jettySize=auto;html=1;exitX=1;exitY=0.5;exitDx=0;exitDy=0;entryX=1;entryY=0.5;entryDx=0;entryDy=0;endSize=10;endArrow=diamond;endFill=1;" parent="1" source="PMgbwwrYKCj1JpObVLI5-2" target="PMgbwwrYKCj1JpObVLI5-7" edge="1">
          <mxGeometry relative="1" as="geometry">
            <Array as="points">
              <mxPoint x="730" y="515" />
              <mxPoint x="730" y="725" />
            </Array>
          </mxGeometry>
        </mxCell>
        <mxCell id="PMgbwwrYKCj1JpObVLI5-2" value="&lt;p style=&quot;margin:0px;margin-top:4px;text-align:center;&quot;&gt;&lt;i&gt;&amp;lt;&amp;lt;Interface&amp;gt;&amp;gt;&lt;/i&gt;&lt;br&gt;&lt;b&gt;ModelState&lt;/b&gt;&lt;/p&gt;&lt;hr size=&quot;1&quot; style=&quot;border-style:solid;&quot;&gt;&lt;p style=&quot;margin:0px;margin-left:4px;&quot;&gt;+ getSelectedOption() : Option&lt;/p&gt;&lt;p style=&quot;margin:0px;margin-left:4px;&quot;&gt;+ getOption() : List&amp;lt;Option&amp;gt;&lt;/p&gt;&lt;p style=&quot;margin:0px;margin-left:4px;&quot;&gt;+ handleAction(model: Model)&lt;/p&gt;" style="verticalAlign=top;align=left;overflow=fill;html=1;whiteSpace=wrap;rounded=1;arcSize=7;" parent="1" vertex="1">
          <mxGeometry x="524.5" y="470" width="177" height="90" as="geometry" />
        </mxCell>
        <mxCell id="PMgbwwrYKCj1JpObVLI5-4" value="&lt;p style=&quot;margin:0px;margin-top:4px;text-align:center;&quot;&gt;&lt;i&gt;&amp;lt;&amp;lt;Interface&amp;gt;&amp;gt;&lt;/i&gt;&lt;br&gt;&lt;b&gt;Model&lt;/b&gt;&lt;/p&gt;&lt;hr size=&quot;1&quot; style=&quot;border-style:solid;&quot;&gt;&lt;p style=&quot;margin:0px;margin-left:4px;&quot;&gt;+ getEntities(): List&amp;lt;Entites&amp;gt;&lt;br&gt;&lt;/p&gt;&lt;p style=&quot;margin:0px;margin-left:4px;&quot;&gt;+ setState(state: ModelState) : void&lt;/p&gt;" style="verticalAlign=top;align=left;overflow=fill;html=1;whiteSpace=wrap;rounded=1;arcSize=7;" parent="1" vertex="1">
          <mxGeometry x="514.5" y="590" width="197" height="80" as="geometry" />
        </mxCell>
        <mxCell id="PMgbwwrYKCj1JpObVLI5-8" style="edgeStyle=orthogonalEdgeStyle;rounded=0;orthogonalLoop=1;jettySize=auto;html=1;exitX=0.5;exitY=0;exitDx=0;exitDy=0;entryX=0.5;entryY=1;entryDx=0;entryDy=0;endArrow=block;endFill=0;endSize=10;dashed=1;" parent="1" source="PMgbwwrYKCj1JpObVLI5-7" target="PMgbwwrYKCj1JpObVLI5-4" edge="1">
          <mxGeometry relative="1" as="geometry" />
        </mxCell>
        <mxCell id="PMgbwwrYKCj1JpObVLI5-7" value="&lt;p style=&quot;margin:0px;margin-top:4px;text-align:center;&quot;&gt;&lt;br&gt;&lt;b&gt;GameModel&lt;/b&gt;&lt;/p&gt;&lt;p style=&quot;margin:0px;margin-top:4px;text-align:center;&quot;&gt;&lt;b&gt;&lt;br&gt;&lt;/b&gt;&lt;/p&gt;" style="verticalAlign=top;align=left;overflow=fill;html=1;whiteSpace=wrap;rounded=1;arcSize=13;" parent="1" vertex="1">
          <mxGeometry x="545.5" y="700" width="135" height="50" as="geometry" />
        </mxCell>
        <mxCell id="PMgbwwrYKCj1JpObVLI5-11" style="edgeStyle=orthogonalEdgeStyle;rounded=0;orthogonalLoop=1;jettySize=auto;html=1;exitX=0.5;exitY=0;exitDx=0;exitDy=0;entryX=0;entryY=0.5;entryDx=0;entryDy=0;endSize=10;endArrow=block;endFill=0;dashed=1;" parent="1" source="PMgbwwrYKCj1JpObVLI5-10" target="PMgbwwrYKCj1JpObVLI5-2" edge="1">
          <mxGeometry relative="1" as="geometry" />
        </mxCell>
        <mxCell id="PMgbwwrYKCj1JpObVLI5-31" style="edgeStyle=orthogonalEdgeStyle;rounded=0;orthogonalLoop=1;jettySize=auto;html=1;exitX=0;exitY=0.5;exitDx=0;exitDy=0;entryX=0.5;entryY=1;entryDx=0;entryDy=0;endArrow=open;endFill=0;endSize=10;dashed=1;" parent="1" source="PMgbwwrYKCj1JpObVLI5-10" target="PMgbwwrYKCj1JpObVLI5-29" edge="1">
          <mxGeometry relative="1" as="geometry" />
        </mxCell>
        <mxCell id="PMgbwwrYKCj1JpObVLI5-10" value="&lt;p style=&quot;margin:0px;margin-top:4px;text-align:center;&quot;&gt;&lt;i&gt;&amp;lt;&amp;lt;Abstract&amp;gt;&amp;gt;&lt;/i&gt;&lt;br&gt;&lt;b&gt;AbstractModelState&lt;/b&gt;&lt;/p&gt;&lt;hr size=&quot;1&quot; style=&quot;border-style:solid;&quot;&gt;&lt;p style=&quot;margin:0px;margin-left:4px;&quot;&gt;# addOption(option: Option) : void&lt;/p&gt;" style="verticalAlign=top;align=left;overflow=fill;html=1;whiteSpace=wrap;rounded=1;arcSize=7;" parent="1" vertex="1">
          <mxGeometry x="203" y="540" width="190" height="70" as="geometry" />
        </mxCell>
        <mxCell id="PMgbwwrYKCj1JpObVLI5-24" style="edgeStyle=orthogonalEdgeStyle;rounded=0;orthogonalLoop=1;jettySize=auto;html=1;exitX=1;exitY=0.5;exitDx=0;exitDy=0;entryX=0.5;entryY=1;entryDx=0;entryDy=0;endSize=10;endArrow=block;endFill=0;" parent="1" source="PMgbwwrYKCj1JpObVLI5-12" target="PMgbwwrYKCj1JpObVLI5-10" edge="1">
          <mxGeometry relative="1" as="geometry" />
        </mxCell>
        <mxCell id="PMgbwwrYKCj1JpObVLI5-12" value="&lt;p style=&quot;margin:0px;margin-top:4px;text-align:center;&quot;&gt;&lt;br&gt;&lt;b&gt;MenuModelState&lt;/b&gt;&lt;/p&gt;" style="verticalAlign=top;align=left;overflow=fill;html=1;whiteSpace=wrap;rounded=1;arcSize=7;" parent="1" vertex="1">
          <mxGeometry x="130" y="630" width="138" height="50" as="geometry" />
        </mxCell>
        <mxCell id="PMgbwwrYKCj1JpObVLI5-26" style="edgeStyle=orthogonalEdgeStyle;rounded=0;orthogonalLoop=1;jettySize=auto;html=1;exitX=1;exitY=0.5;exitDx=0;exitDy=0;entryX=0.5;entryY=1;entryDx=0;entryDy=0;endSize=10;endArrow=block;endFill=0;" parent="1" source="PMgbwwrYKCj1JpObVLI5-13" target="PMgbwwrYKCj1JpObVLI5-10" edge="1">
          <mxGeometry relative="1" as="geometry" />
        </mxCell>
        <mxCell id="PMgbwwrYKCj1JpObVLI5-13" value="&lt;p style=&quot;margin:0px;margin-top:4px;text-align:center;&quot;&gt;&lt;br&gt;&lt;b&gt;InGameModelState&lt;/b&gt;&lt;/p&gt;" style="verticalAlign=top;align=left;overflow=fill;html=1;whiteSpace=wrap;rounded=1;arcSize=7;" parent="1" vertex="1">
          <mxGeometry x="130" y="700" width="138" height="50" as="geometry" />
        </mxCell>
        <mxCell id="PMgbwwrYKCj1JpObVLI5-25" style="edgeStyle=orthogonalEdgeStyle;rounded=0;orthogonalLoop=1;jettySize=auto;html=1;exitX=0;exitY=0.5;exitDx=0;exitDy=0;endSize=10;endArrow=block;endFill=0;" parent="1" source="PMgbwwrYKCj1JpObVLI5-14" edge="1">
          <mxGeometry relative="1" as="geometry">
            <mxPoint x="298" y="610" as="targetPoint" />
          </mxGeometry>
        </mxCell>
        <mxCell id="PMgbwwrYKCj1JpObVLI5-14" value="&lt;p style=&quot;margin:0px;margin-top:4px;text-align:center;&quot;&gt;&lt;br&gt;&lt;b&gt;PauseModelState&lt;/b&gt;&lt;/p&gt;" style="verticalAlign=top;align=left;overflow=fill;html=1;whiteSpace=wrap;rounded=1;arcSize=7;" parent="1" vertex="1">
          <mxGeometry x="328" y="630" width="142" height="50" as="geometry" />
        </mxCell>
        <mxCell id="PMgbwwrYKCj1JpObVLI5-27" style="edgeStyle=orthogonalEdgeStyle;rounded=0;orthogonalLoop=1;jettySize=auto;html=1;exitX=0;exitY=0.5;exitDx=0;exitDy=0;endSize=10;endArrow=block;endFill=0;" parent="1" source="PMgbwwrYKCj1JpObVLI5-15" edge="1">
          <mxGeometry relative="1" as="geometry">
            <mxPoint x="298" y="610" as="targetPoint" />
          </mxGeometry>
        </mxCell>
        <mxCell id="PMgbwwrYKCj1JpObVLI5-15" value="&lt;p style=&quot;margin:0px;margin-top:4px;text-align:center;&quot;&gt;&lt;br&gt;&lt;b&gt;GameOverModelState&lt;/b&gt;&lt;/p&gt;" style="verticalAlign=top;align=left;overflow=fill;html=1;whiteSpace=wrap;rounded=1;arcSize=7;" parent="1" vertex="1">
          <mxGeometry x="328" y="700" width="142" height="50" as="geometry" />
        </mxCell>
        <mxCell id="PMgbwwrYKCj1JpObVLI5-29" value="&lt;p style=&quot;margin:0px;margin-top:4px;text-align:center;&quot;&gt;&lt;i&gt;&amp;lt;&amp;lt;Enumeration&amp;gt;&amp;gt;&lt;/i&gt;&lt;br&gt;&lt;b&gt;Option&lt;/b&gt;&lt;/p&gt;&lt;hr size=&quot;1&quot; style=&quot;border-style:solid;&quot;&gt;&lt;p style=&quot;margin:0px;margin-left:4px;&quot;&gt;START&lt;/p&gt;&lt;p style=&quot;margin:0px;margin-left:4px;&quot;&gt;RESUME&lt;/p&gt;&lt;p style=&quot;margin:0px;margin-left:4px;&quot;&gt;MENU&lt;/p&gt;&lt;p style=&quot;margin:0px;margin-left:4px;&quot;&gt;QUIT&lt;/p&gt;&lt;p style=&quot;margin:0px;margin-left:4px;&quot;&gt;NONE&lt;/p&gt;&lt;hr size=&quot;1&quot; style=&quot;border-style:solid;&quot;&gt;&lt;p style=&quot;margin:0px;margin-left:4px;&quot;&gt;&lt;br&gt;&lt;/p&gt;" style="verticalAlign=top;align=left;overflow=fill;html=1;whiteSpace=wrap;rounded=1;arcSize=7;" parent="1" vertex="1">
          <mxGeometry x="118" y="380" width="105" height="125" as="geometry" />
        </mxCell>
      </root>
    </mxGraphModel>
  </diagram>
</mxfile>
